<mxfile host="Electron" agent="Mozilla/5.0 (Macintosh; Intel Mac OS X 10_15_7) AppleWebKit/537.36 (KHTML, like Gecko) draw.io/25.0.2 Chrome/128.0.6613.186 Electron/32.2.5 Safari/537.36" version="25.0.2">
  <diagram id="6a731a19-8d31-9384-78a2-239565b7b9f0" name="Page-1">
    <mxGraphModel dx="3117" dy="1887" grid="1" gridSize="10" guides="1" tooltips="1" connect="1" arrows="1" fold="1" page="1" pageScale="1" pageWidth="1169" pageHeight="827" background="none" math="0" shadow="0">
      <root>
        <mxCell id="0" />
        <mxCell id="1" parent="0" />
        <mxCell id="vbBeiTdjYTLyHqXOJeHc-1780" value="" style="edgeStyle=orthogonalEdgeStyle;rounded=0;orthogonalLoop=1;jettySize=auto;html=1;" parent="1" source="1749" target="vbBeiTdjYTLyHqXOJeHc-1779" edge="1">
          <mxGeometry relative="1" as="geometry" />
        </mxCell>
        <mxCell id="vbBeiTdjYTLyHqXOJeHc-1782" value="" style="edgeStyle=orthogonalEdgeStyle;rounded=0;orthogonalLoop=1;jettySize=auto;html=1;" parent="1" source="1749" target="vbBeiTdjYTLyHqXOJeHc-1781" edge="1">
          <mxGeometry relative="1" as="geometry" />
        </mxCell>
        <mxCell id="vbBeiTdjYTLyHqXOJeHc-1784" value="" style="edgeStyle=orthogonalEdgeStyle;rounded=0;orthogonalLoop=1;jettySize=auto;html=1;" parent="1" source="1749" target="vbBeiTdjYTLyHqXOJeHc-1783" edge="1">
          <mxGeometry relative="1" as="geometry" />
        </mxCell>
        <mxCell id="vbBeiTdjYTLyHqXOJeHc-1786" value="" style="edgeStyle=orthogonalEdgeStyle;rounded=0;orthogonalLoop=1;jettySize=auto;html=1;" parent="1" source="1749" target="vbBeiTdjYTLyHqXOJeHc-1785" edge="1">
          <mxGeometry relative="1" as="geometry" />
        </mxCell>
        <mxCell id="1749" value="Безопасность данных" style="rounded=1;whiteSpace=wrap;html=1;shadow=0;labelBackgroundColor=none;strokeWidth=3;fontFamily=Helvetica;fontSize=16;align=center;fontStyle=1;spacing=5;arcSize=7;perimeterSpacing=2;" parent="1" vertex="1">
          <mxGeometry x="495" y="380.5" width="150" height="70" as="geometry" />
        </mxCell>
        <mxCell id="qJ97H3-QueBjiVBLkz_k-1758" style="edgeStyle=orthogonalEdgeStyle;rounded=0;orthogonalLoop=1;jettySize=auto;html=1;entryX=0.5;entryY=1;entryDx=0;entryDy=0;" edge="1" parent="1" source="vbBeiTdjYTLyHqXOJeHc-1779" target="vbBeiTdjYTLyHqXOJeHc-1794">
          <mxGeometry relative="1" as="geometry" />
        </mxCell>
        <mxCell id="qJ97H3-QueBjiVBLkz_k-1759" style="edgeStyle=orthogonalEdgeStyle;rounded=0;orthogonalLoop=1;jettySize=auto;html=1;entryX=0.5;entryY=1;entryDx=0;entryDy=0;" edge="1" parent="1" source="vbBeiTdjYTLyHqXOJeHc-1779" target="vbBeiTdjYTLyHqXOJeHc-1787">
          <mxGeometry relative="1" as="geometry" />
        </mxCell>
        <mxCell id="vbBeiTdjYTLyHqXOJeHc-1779" value="Публичные данные" style="whiteSpace=wrap;html=1;fontSize=16;rounded=1;shadow=0;labelBackgroundColor=none;strokeWidth=3;fontStyle=1;spacing=5;arcSize=7;fillColor=#d5e8d4;strokeColor=#82b366;" parent="1" vertex="1">
          <mxGeometry x="510" y="260" width="120" height="60" as="geometry" />
        </mxCell>
        <mxCell id="vbBeiTdjYTLyHqXOJeHc-1820" value="" style="edgeStyle=orthogonalEdgeStyle;rounded=0;orthogonalLoop=1;jettySize=auto;html=1;entryX=0;entryY=0.5;entryDx=0;entryDy=0;" parent="1" source="vbBeiTdjYTLyHqXOJeHc-1781" target="vbBeiTdjYTLyHqXOJeHc-1819" edge="1">
          <mxGeometry relative="1" as="geometry" />
        </mxCell>
        <mxCell id="vbBeiTdjYTLyHqXOJeHc-1781" value="Внутренние данные" style="whiteSpace=wrap;html=1;fontSize=16;rounded=1;shadow=0;labelBackgroundColor=none;strokeWidth=3;fontStyle=1;spacing=5;arcSize=7;fillColor=#fff2cc;strokeColor=#d6b656;" parent="1" vertex="1">
          <mxGeometry x="720" y="385.5" width="120" height="60" as="geometry" />
        </mxCell>
        <mxCell id="qJ97H3-QueBjiVBLkz_k-1751" style="edgeStyle=orthogonalEdgeStyle;rounded=0;orthogonalLoop=1;jettySize=auto;html=1;exitX=0;exitY=0.5;exitDx=0;exitDy=0;entryX=1;entryY=0.5;entryDx=0;entryDy=0;" edge="1" parent="1" source="vbBeiTdjYTLyHqXOJeHc-1783" target="vbBeiTdjYTLyHqXOJeHc-1905">
          <mxGeometry relative="1" as="geometry" />
        </mxCell>
        <mxCell id="qJ97H3-QueBjiVBLkz_k-1752" style="edgeStyle=orthogonalEdgeStyle;rounded=0;orthogonalLoop=1;jettySize=auto;html=1;entryX=1;entryY=0.5;entryDx=0;entryDy=0;" edge="1" parent="1" source="vbBeiTdjYTLyHqXOJeHc-1783" target="vbBeiTdjYTLyHqXOJeHc-1907">
          <mxGeometry relative="1" as="geometry" />
        </mxCell>
        <mxCell id="qJ97H3-QueBjiVBLkz_k-1753" style="edgeStyle=orthogonalEdgeStyle;rounded=0;orthogonalLoop=1;jettySize=auto;html=1;entryX=1;entryY=0.5;entryDx=0;entryDy=0;" edge="1" parent="1" source="vbBeiTdjYTLyHqXOJeHc-1783" target="vbBeiTdjYTLyHqXOJeHc-1915">
          <mxGeometry relative="1" as="geometry" />
        </mxCell>
        <mxCell id="vbBeiTdjYTLyHqXOJeHc-1783" value="Секретные данные" style="whiteSpace=wrap;html=1;fontSize=16;rounded=1;shadow=0;labelBackgroundColor=none;strokeWidth=3;fontStyle=1;spacing=5;arcSize=7;fillColor=#f8cecc;strokeColor=#b85450;" parent="1" vertex="1">
          <mxGeometry x="300" y="385.5" width="120" height="60" as="geometry" />
        </mxCell>
        <mxCell id="vbBeiTdjYTLyHqXOJeHc-1860" value="" style="edgeStyle=orthogonalEdgeStyle;rounded=0;orthogonalLoop=1;jettySize=auto;html=1;entryX=0.5;entryY=0;entryDx=0;entryDy=0;exitX=0.5;exitY=1;exitDx=0;exitDy=0;" parent="1" source="vbBeiTdjYTLyHqXOJeHc-1785" target="vbBeiTdjYTLyHqXOJeHc-1859" edge="1">
          <mxGeometry relative="1" as="geometry" />
        </mxCell>
        <mxCell id="vbBeiTdjYTLyHqXOJeHc-1869" style="edgeStyle=orthogonalEdgeStyle;rounded=0;orthogonalLoop=1;jettySize=auto;html=1;exitX=0.5;exitY=1;exitDx=0;exitDy=0;entryX=0.5;entryY=0;entryDx=0;entryDy=0;" parent="1" source="vbBeiTdjYTLyHqXOJeHc-1785" target="vbBeiTdjYTLyHqXOJeHc-1863" edge="1">
          <mxGeometry relative="1" as="geometry" />
        </mxCell>
        <mxCell id="vbBeiTdjYTLyHqXOJeHc-1785" value="Конфиденциальные данные" style="whiteSpace=wrap;html=1;fontSize=16;rounded=1;shadow=0;labelBackgroundColor=none;strokeWidth=3;fontStyle=1;spacing=5;arcSize=7;fillColor=#ffe6cc;strokeColor=#d79b00;" parent="1" vertex="1">
          <mxGeometry x="480" y="500" width="180" height="60" as="geometry" />
        </mxCell>
        <mxCell id="vbBeiTdjYTLyHqXOJeHc-1797" value="" style="edgeStyle=orthogonalEdgeStyle;rounded=0;orthogonalLoop=1;jettySize=auto;html=1;" parent="1" source="vbBeiTdjYTLyHqXOJeHc-1787" target="vbBeiTdjYTLyHqXOJeHc-1796" edge="1">
          <mxGeometry relative="1" as="geometry" />
        </mxCell>
        <mxCell id="vbBeiTdjYTLyHqXOJeHc-1787" value="Данные об объектах недвижимости" style="whiteSpace=wrap;html=1;fontSize=10;fillColor=#d5e8d4;strokeColor=#82b366;rounded=1;shadow=0;labelBackgroundColor=none;strokeWidth=3;fontStyle=1;spacing=5;arcSize=7;" parent="1" vertex="1">
          <mxGeometry x="430" y="130" width="120" height="60" as="geometry" />
        </mxCell>
        <mxCell id="vbBeiTdjYTLyHqXOJeHc-1816" style="edgeStyle=orthogonalEdgeStyle;rounded=0;orthogonalLoop=1;jettySize=auto;html=1;exitX=0.5;exitY=0;exitDx=0;exitDy=0;entryX=0.5;entryY=1;entryDx=0;entryDy=0;" parent="1" source="vbBeiTdjYTLyHqXOJeHc-1794" target="vbBeiTdjYTLyHqXOJeHc-1814" edge="1">
          <mxGeometry relative="1" as="geometry" />
        </mxCell>
        <mxCell id="vbBeiTdjYTLyHqXOJeHc-1794" value="&lt;font style=&quot;font-size: 10px;&quot;&gt;Информация о компании&lt;/font&gt;" style="whiteSpace=wrap;html=1;fontSize=10;fillColor=#d5e8d4;strokeColor=#82b366;rounded=1;shadow=0;labelBackgroundColor=none;strokeWidth=3;fontStyle=1;spacing=5;arcSize=7;" parent="1" vertex="1">
          <mxGeometry x="590" y="130" width="120" height="60" as="geometry" />
        </mxCell>
        <mxCell id="vbBeiTdjYTLyHqXOJeHc-1799" value="" style="edgeStyle=orthogonalEdgeStyle;rounded=0;orthogonalLoop=1;jettySize=auto;html=1;" parent="1" source="vbBeiTdjYTLyHqXOJeHc-1796" target="vbBeiTdjYTLyHqXOJeHc-1798" edge="1">
          <mxGeometry relative="1" as="geometry" />
        </mxCell>
        <mxCell id="vbBeiTdjYTLyHqXOJeHc-1796" value="&lt;font style=&quot;font-size: 9px;&quot;&gt;Искажение данных&lt;br style=&quot;font-size: 9px;&quot;&gt;Риск -&amp;nbsp;&lt;/font&gt;&lt;span style=&quot;font-size: 9px;&quot;&gt;незначительный&lt;/span&gt;" style="whiteSpace=wrap;html=1;fontSize=9;rounded=1;shadow=0;labelBackgroundColor=none;strokeWidth=3;fontStyle=1;spacing=5;arcSize=7;fillColor=#d5e8d4;gradientColor=#97d077;strokeColor=#82b366;" parent="1" vertex="1">
          <mxGeometry x="430" y="-10" width="120" height="60" as="geometry" />
        </mxCell>
        <mxCell id="vbBeiTdjYTLyHqXOJeHc-1798" value="Репутационные риски" style="whiteSpace=wrap;html=1;fontSize=9;rounded=1;shadow=0;labelBackgroundColor=none;strokeWidth=2;fontStyle=1;spacing=5;arcSize=7;" parent="1" vertex="1">
          <mxGeometry x="430" y="-150" width="120" height="60" as="geometry" />
        </mxCell>
        <mxCell id="vbBeiTdjYTLyHqXOJeHc-1813" value="" style="edgeStyle=orthogonalEdgeStyle;rounded=0;orthogonalLoop=1;jettySize=auto;html=1;" parent="1" source="vbBeiTdjYTLyHqXOJeHc-1814" target="vbBeiTdjYTLyHqXOJeHc-1815" edge="1">
          <mxGeometry relative="1" as="geometry" />
        </mxCell>
        <mxCell id="vbBeiTdjYTLyHqXOJeHc-1814" value="&lt;font style=&quot;font-size: 9px;&quot;&gt;Искажение данных&lt;br style=&quot;font-size: 9px;&quot;&gt;Риск -&amp;nbsp;&lt;/font&gt;&lt;span style=&quot;font-size: 9px;&quot;&gt;незначительный&lt;/span&gt;" style="whiteSpace=wrap;html=1;fontSize=9;rounded=1;shadow=0;labelBackgroundColor=none;strokeWidth=3;fontStyle=1;spacing=5;arcSize=7;fillColor=#d5e8d4;gradientColor=#97d077;strokeColor=#82b366;" parent="1" vertex="1">
          <mxGeometry x="590" y="-10" width="120" height="60" as="geometry" />
        </mxCell>
        <mxCell id="vbBeiTdjYTLyHqXOJeHc-1815" value="Репутационные риски" style="whiteSpace=wrap;html=1;fontSize=9;rounded=1;shadow=0;labelBackgroundColor=none;strokeWidth=2;fontStyle=1;spacing=5;arcSize=7;" parent="1" vertex="1">
          <mxGeometry x="590" y="-150" width="120" height="60" as="geometry" />
        </mxCell>
        <mxCell id="vbBeiTdjYTLyHqXOJeHc-1837" style="edgeStyle=orthogonalEdgeStyle;rounded=0;orthogonalLoop=1;jettySize=auto;html=1;exitX=1;exitY=0.5;exitDx=0;exitDy=0;entryX=0;entryY=0.5;entryDx=0;entryDy=0;" parent="1" source="vbBeiTdjYTLyHqXOJeHc-1819" target="vbBeiTdjYTLyHqXOJeHc-1833" edge="1">
          <mxGeometry relative="1" as="geometry" />
        </mxCell>
        <mxCell id="vbBeiTdjYTLyHqXOJeHc-1819" value="внутренние документы сотрудников компании" style="whiteSpace=wrap;html=1;fontSize=10;fillColor=#fff2cc;strokeColor=#d6b656;rounded=1;shadow=0;labelBackgroundColor=none;strokeWidth=3;fontStyle=1;spacing=5;arcSize=7;" parent="1" vertex="1">
          <mxGeometry x="920" y="386" width="120" height="60" as="geometry" />
        </mxCell>
        <mxCell id="vbBeiTdjYTLyHqXOJeHc-1839" style="edgeStyle=orthogonalEdgeStyle;rounded=0;orthogonalLoop=1;jettySize=auto;html=1;exitX=1;exitY=0.5;exitDx=0;exitDy=0;entryX=0;entryY=0.5;entryDx=0;entryDy=0;" parent="1" source="vbBeiTdjYTLyHqXOJeHc-1833" target="vbBeiTdjYTLyHqXOJeHc-1835" edge="1">
          <mxGeometry relative="1" as="geometry" />
        </mxCell>
        <mxCell id="vbBeiTdjYTLyHqXOJeHc-1833" value="Утечка данных&lt;br&gt;Риск - значительный" style="whiteSpace=wrap;html=1;fontSize=10;rounded=1;shadow=0;labelBackgroundColor=none;strokeWidth=3;fontStyle=1;spacing=5;arcSize=7;fillColor=#ffcd28;strokeColor=#d79b00;gradientColor=#ffa500;" parent="1" vertex="1">
          <mxGeometry x="1130" y="386" width="120" height="60" as="geometry" />
        </mxCell>
        <mxCell id="vbBeiTdjYTLyHqXOJeHc-1835" value="Может привести к потере конкурентных преимуществ." style="whiteSpace=wrap;html=1;fontSize=10;rounded=1;shadow=0;labelBackgroundColor=none;strokeWidth=2;fontStyle=1;spacing=5;arcSize=7;" parent="1" vertex="1">
          <mxGeometry x="1283" y="386" width="120" height="60" as="geometry" />
        </mxCell>
        <mxCell id="vbBeiTdjYTLyHqXOJeHc-1874" value="" style="edgeStyle=orthogonalEdgeStyle;rounded=0;orthogonalLoop=1;jettySize=auto;html=1;" parent="1" source="vbBeiTdjYTLyHqXOJeHc-1859" target="vbBeiTdjYTLyHqXOJeHc-1873" edge="1">
          <mxGeometry relative="1" as="geometry" />
        </mxCell>
        <mxCell id="vbBeiTdjYTLyHqXOJeHc-1859" value="персональные данные пользователей" style="whiteSpace=wrap;html=1;fontSize=10;fillColor=#ffe6cc;strokeColor=#d79b00;rounded=1;shadow=0;labelBackgroundColor=none;strokeWidth=3;fontStyle=1;spacing=5;arcSize=7;" parent="1" vertex="1">
          <mxGeometry x="420" y="645.5" width="120" height="60" as="geometry" />
        </mxCell>
        <mxCell id="vbBeiTdjYTLyHqXOJeHc-1891" style="edgeStyle=orthogonalEdgeStyle;rounded=0;orthogonalLoop=1;jettySize=auto;html=1;exitX=0.5;exitY=1;exitDx=0;exitDy=0;entryX=0.5;entryY=0;entryDx=0;entryDy=0;" parent="1" source="vbBeiTdjYTLyHqXOJeHc-1863" target="vbBeiTdjYTLyHqXOJeHc-1886" edge="1">
          <mxGeometry relative="1" as="geometry" />
        </mxCell>
        <mxCell id="vbBeiTdjYTLyHqXOJeHc-1863" value="информация о сделках с недвижимостью" style="whiteSpace=wrap;html=1;fontSize=10;fillColor=#ffe6cc;strokeColor=#d79b00;rounded=1;shadow=0;labelBackgroundColor=none;strokeWidth=3;fontStyle=1;spacing=5;arcSize=7;" parent="1" vertex="1">
          <mxGeometry x="610" y="645.5" width="120" height="60" as="geometry" />
        </mxCell>
        <mxCell id="vbBeiTdjYTLyHqXOJeHc-1876" value="" style="edgeStyle=orthogonalEdgeStyle;rounded=0;orthogonalLoop=1;jettySize=auto;html=1;" parent="1" source="vbBeiTdjYTLyHqXOJeHc-1873" target="vbBeiTdjYTLyHqXOJeHc-1875" edge="1">
          <mxGeometry relative="1" as="geometry" />
        </mxCell>
        <mxCell id="vbBeiTdjYTLyHqXOJeHc-1873" value="Утечка данных&lt;br&gt;Риск - критический" style="whiteSpace=wrap;html=1;fontSize=10;rounded=1;shadow=0;labelBackgroundColor=none;strokeWidth=3;fontStyle=1;spacing=5;arcSize=7;fillColor=#f8cecc;strokeColor=#b85450;gradientColor=#ea6b66;" parent="1" vertex="1">
          <mxGeometry x="420" y="790" width="120" height="60" as="geometry" />
        </mxCell>
        <mxCell id="vbBeiTdjYTLyHqXOJeHc-1875" value="Может привести к юридическим последствиям" style="whiteSpace=wrap;html=1;fontSize=10;rounded=1;shadow=0;labelBackgroundColor=none;strokeWidth=2;fontStyle=1;spacing=5;arcSize=7;" parent="1" vertex="1">
          <mxGeometry x="420" y="900" width="120" height="60" as="geometry" />
        </mxCell>
        <mxCell id="vbBeiTdjYTLyHqXOJeHc-1885" value="" style="edgeStyle=orthogonalEdgeStyle;rounded=0;orthogonalLoop=1;jettySize=auto;html=1;" parent="1" source="vbBeiTdjYTLyHqXOJeHc-1886" target="vbBeiTdjYTLyHqXOJeHc-1887" edge="1">
          <mxGeometry relative="1" as="geometry" />
        </mxCell>
        <mxCell id="vbBeiTdjYTLyHqXOJeHc-1886" value="Утечка данных&lt;br&gt;Риск - критический" style="whiteSpace=wrap;html=1;fontSize=10;rounded=1;shadow=0;labelBackgroundColor=none;strokeWidth=3;fontStyle=1;spacing=5;arcSize=7;fillColor=#f8cecc;strokeColor=#b85450;gradientColor=#ea6b66;" parent="1" vertex="1">
          <mxGeometry x="610" y="790" width="120" height="60" as="geometry" />
        </mxCell>
        <mxCell id="vbBeiTdjYTLyHqXOJeHc-1887" value="Может привести к юридическим последствиям" style="whiteSpace=wrap;html=1;fontSize=10;rounded=1;shadow=0;labelBackgroundColor=none;strokeWidth=2;fontStyle=1;spacing=5;arcSize=7;" parent="1" vertex="1">
          <mxGeometry x="610" y="900" width="120" height="60" as="geometry" />
        </mxCell>
        <mxCell id="qJ97H3-QueBjiVBLkz_k-1755" style="edgeStyle=orthogonalEdgeStyle;rounded=0;orthogonalLoop=1;jettySize=auto;html=1;entryX=1;entryY=0.5;entryDx=0;entryDy=0;" edge="1" parent="1" source="vbBeiTdjYTLyHqXOJeHc-1905" target="vbBeiTdjYTLyHqXOJeHc-1921">
          <mxGeometry relative="1" as="geometry" />
        </mxCell>
        <mxCell id="vbBeiTdjYTLyHqXOJeHc-1905" value="платежные данные пользователей" style="whiteSpace=wrap;html=1;fontSize=10;fillColor=#f8cecc;strokeColor=#b85450;rounded=1;shadow=0;labelBackgroundColor=none;strokeWidth=3;fontStyle=1;spacing=5;arcSize=7;" parent="1" vertex="1">
          <mxGeometry x="70" y="280" width="120" height="60" as="geometry" />
        </mxCell>
        <mxCell id="qJ97H3-QueBjiVBLkz_k-1754" style="edgeStyle=orthogonalEdgeStyle;rounded=0;orthogonalLoop=1;jettySize=auto;html=1;entryX=1;entryY=0.5;entryDx=0;entryDy=0;" edge="1" parent="1" source="vbBeiTdjYTLyHqXOJeHc-1907" target="vbBeiTdjYTLyHqXOJeHc-1922">
          <mxGeometry relative="1" as="geometry" />
        </mxCell>
        <mxCell id="vbBeiTdjYTLyHqXOJeHc-1907" value="ключи и сертификаты" style="whiteSpace=wrap;html=1;fontSize=10;fillColor=#f8cecc;strokeColor=#b85450;rounded=1;shadow=0;labelBackgroundColor=none;strokeWidth=3;fontStyle=1;spacing=5;arcSize=7;" parent="1" vertex="1">
          <mxGeometry x="70" y="385.5" width="120" height="60" as="geometry" />
        </mxCell>
        <mxCell id="vbBeiTdjYTLyHqXOJeHc-1933" value="" style="edgeStyle=orthogonalEdgeStyle;rounded=0;orthogonalLoop=1;jettySize=auto;html=1;" parent="1" source="vbBeiTdjYTLyHqXOJeHc-1921" target="vbBeiTdjYTLyHqXOJeHc-1932" edge="1">
          <mxGeometry relative="1" as="geometry" />
        </mxCell>
        <mxCell id="vbBeiTdjYTLyHqXOJeHc-1921" value="Утечка данных&lt;br&gt;Риск - критический" style="whiteSpace=wrap;html=1;fontSize=10;rounded=1;shadow=0;labelBackgroundColor=none;strokeWidth=3;fontStyle=1;spacing=5;arcSize=7;fillColor=#f8cecc;strokeColor=#b85450;gradientColor=#ea6b66;" parent="1" vertex="1">
          <mxGeometry x="-170" y="280" width="120" height="60" as="geometry" />
        </mxCell>
        <mxCell id="vbBeiTdjYTLyHqXOJeHc-1937" value="" style="edgeStyle=orthogonalEdgeStyle;rounded=0;orthogonalLoop=1;jettySize=auto;html=1;" parent="1" source="vbBeiTdjYTLyHqXOJeHc-1922" target="vbBeiTdjYTLyHqXOJeHc-1936" edge="1">
          <mxGeometry relative="1" as="geometry" />
        </mxCell>
        <mxCell id="vbBeiTdjYTLyHqXOJeHc-1922" value="Утечка данных&lt;br&gt;Риск - критический" style="whiteSpace=wrap;html=1;fontSize=10;rounded=1;shadow=0;labelBackgroundColor=none;strokeWidth=3;fontStyle=1;spacing=5;arcSize=7;fillColor=#f8cecc;strokeColor=#b85450;gradientColor=#ea6b66;" parent="1" vertex="1">
          <mxGeometry x="-170" y="385.5" width="120" height="60" as="geometry" />
        </mxCell>
        <mxCell id="vbBeiTdjYTLyHqXOJeHc-1941" value="" style="edgeStyle=orthogonalEdgeStyle;rounded=0;orthogonalLoop=1;jettySize=auto;html=1;" parent="1" source="vbBeiTdjYTLyHqXOJeHc-1926" target="vbBeiTdjYTLyHqXOJeHc-1940" edge="1">
          <mxGeometry relative="1" as="geometry" />
        </mxCell>
        <mxCell id="vbBeiTdjYTLyHqXOJeHc-1926" value="Утечка данных&lt;br&gt;Риск - критический" style="whiteSpace=wrap;html=1;fontSize=10;rounded=1;shadow=0;labelBackgroundColor=none;strokeWidth=3;fontStyle=1;spacing=5;arcSize=7;fillColor=#f8cecc;strokeColor=#b85450;gradientColor=#ea6b66;" parent="1" vertex="1">
          <mxGeometry x="-170" y="480" width="120" height="60" as="geometry" />
        </mxCell>
        <mxCell id="vbBeiTdjYTLyHqXOJeHc-1932" value="Может привести к&amp;nbsp; финансовым и юридическим последствиям" style="whiteSpace=wrap;html=1;fontSize=10;rounded=1;shadow=0;labelBackgroundColor=none;strokeWidth=2;fontStyle=1;spacing=5;arcSize=7;" parent="1" vertex="1">
          <mxGeometry x="-330" y="270" width="120" height="80" as="geometry" />
        </mxCell>
        <mxCell id="vbBeiTdjYTLyHqXOJeHc-1936" value="Может привести к нарушению целостности данных" style="whiteSpace=wrap;html=1;fontSize=10;rounded=1;shadow=0;labelBackgroundColor=none;strokeWidth=2;fontStyle=1;spacing=5;arcSize=7;" parent="1" vertex="1">
          <mxGeometry x="-330" y="375.5" width="120" height="80" as="geometry" />
        </mxCell>
        <mxCell id="vbBeiTdjYTLyHqXOJeHc-1940" value="Может привести к ослаблению защиты системы" style="whiteSpace=wrap;html=1;fontSize=10;rounded=1;shadow=0;labelBackgroundColor=none;strokeWidth=2;fontStyle=1;spacing=5;arcSize=7;" parent="1" vertex="1">
          <mxGeometry x="-330" y="480" width="120" height="60" as="geometry" />
        </mxCell>
        <mxCell id="qJ97H3-QueBjiVBLkz_k-1756" style="edgeStyle=orthogonalEdgeStyle;rounded=0;orthogonalLoop=1;jettySize=auto;html=1;exitX=0;exitY=0.5;exitDx=0;exitDy=0;entryX=1;entryY=0.5;entryDx=0;entryDy=0;" edge="1" parent="1" source="vbBeiTdjYTLyHqXOJeHc-1915" target="vbBeiTdjYTLyHqXOJeHc-1926">
          <mxGeometry relative="1" as="geometry" />
        </mxCell>
        <mxCell id="vbBeiTdjYTLyHqXOJeHc-1915" value="конфигурационные данные и архитектура системы" style="whiteSpace=wrap;html=1;fontSize=10;fillColor=#f8cecc;strokeColor=#b85450;rounded=1;shadow=0;labelBackgroundColor=none;strokeWidth=3;fontStyle=1;spacing=5;arcSize=7;" parent="1" vertex="1">
          <mxGeometry x="70" y="480" width="120" height="60" as="geometry" />
        </mxCell>
      </root>
    </mxGraphModel>
  </diagram>
</mxfile>
